<svg xmlns="http://www.w3.org/2000/svg" viewBox="0 0 56 48"><style>tspan { white-space:pre }.shp0 { fill: #ffffff;stroke: #000000;stroke-width: 3 } .shp1 { fill: #000000 } .shp2 { fill: #ffffff } </style><path class="shp0" d="M14.5 2L14.5 2C21.41 2 27 7.59 27 14.5L27 33.5C27 40.41 21.41 46 14.5 46L14.5 46C7.59 46 2 40.41 2 33.5L2 14.5C2 7.59 7.59 2 14.5 2Z" /><path class="shp0" d="M41.5 2L41.5 2C48.41 2 54 7.59 54 14.5L54 33.5C54 40.41 48.41 46 41.5 46L41.5 46C34.59 46 29 40.41 29 33.5L29 14.5C29 7.59 34.59 2 41.5 2Z" /><path class="shp1" d="M44 38C39.02 38 35 33.98 35 29C35 24.02 39.02 20 44 20C48.98 20 53 24.02 53 29C53 33.98 48.98 38 44 38Z" /><path class="shp2" d="M40.5 28C39.12 28 38 26.88 38 25.5C38 24.12 39.12 23 40.5 23C41.88 23 43 24.12 43 25.5C43 26.88 41.88 28 40.5 28Z" /><path class="shp1" d="M17 38C12.02 38 8 33.98 8 29C8 24.02 12.02 20 17 20C21.98 20 26 24.02 26 29C26 33.98 21.98 38 17 38Z" /><path class="shp2" d="M13.5 28C12.12 28 11 26.88 11 25.5C11 24.12 12.12 23 13.5 23C14.88 23 16 24.12 16 25.5C16 26.88 14.88 28 13.5 28Z" /></svg>